# Blender v3.0.1 OBJ File: 'fumohitbox.blend'
# www.blender.org
mtllib inufumocolission.mtl
o Cube_Cube.011
v 1.701446 6.232996 3.221149
v 2.151123 5.805016 8.777115
v 5.310928 5.310926 8.046494
v 5.073345 5.073344 3.064794
v 7.427578 -2.666668 3.331921
v 6.588846 -2.666670 9.624355
v 5.310928 -5.310930 8.046491
v 5.073345 -5.073345 3.064790
v -1.484970 -5.422641 2.793727
v -2.152324 -5.808286 8.774199
v -5.310928 -5.310930 8.046491
v -5.073345 -5.073345 3.064790
v -7.427578 2.666665 3.331923
v -6.588846 2.666663 9.624357
v -5.310928 5.310926 8.046494
v -5.073345 5.073344 3.064794
v -2.666667 -2.666663 -10.800001
v -2.273566 -6.438044 -9.089395
v -5.363323 -5.353919 -7.935645
v -6.492683 -2.350993 -9.033754
v -2.666667 2.666663 11.599971
v -2.151123 5.805016 8.777115
v -2.666667 -2.666670 11.599969
v -6.588846 -2.666670 9.624355
v 2.666667 -2.666670 11.599969
v 2.152324 -5.808286 8.774199
v 6.588846 2.666663 9.624357
v 2.666667 2.666663 11.599971
v -2.984458 7.879388 -10.359775
v -2.666667 2.666670 -10.799999
v -7.181938 2.666670 -9.737246
v -6.381454 6.381457 -9.401334
v 6.381454 6.381457 -9.401334
v 7.181938 2.666670 -9.737246
v 2.666667 2.666670 -10.799999
v 2.984458 7.879388 -10.359775
v 6.492683 -2.350993 -9.033754
v 2.666667 -2.666663 -10.800001
v 5.363323 -5.353919 -7.935645
v 2.273566 -6.438044 -9.089395
v -6.521839 1.664059 -3.359206
v -4.218683 4.306118 -2.699906
v -3.990715 -3.773381 -3.947896
v -6.345445 -1.467560 -2.731075
v -7.427578 -2.666668 3.331921
v -0.196031 -5.042777 -3.748622
v 3.990715 -3.773373 -3.947901
v 0.196031 -5.042775 -3.748613
v 1.484970 -5.422641 2.793727
v 6.345445 -1.467561 -2.731073
v 4.218683 4.306118 -2.699906
v 6.521839 1.664059 -3.359206
v 7.427578 2.666665 3.331923
v 0.733569 5.763712 -3.143759
v -0.733569 5.763712 -3.143759
v -1.701446 6.232996 3.221149
vt 0.541667 0.166667
vt 0.625000 0.250000
vt 0.541667 0.250000
vt 0.541667 0.416667
vt 0.625000 0.500000
vt 0.541667 0.500000
vt 0.541667 0.666667
vt 0.625000 0.750000
vt 0.541667 0.750000
vt 0.541667 0.916667
vt 0.625000 1.000000
vt 0.541667 1.000000
vt 0.291667 0.666667
vt 0.375000 0.750000
vt 0.291667 0.750000
vt 0.791667 0.666667
vt 0.875000 0.750000
vt 0.791667 0.750000
vt 0.708333 0.666667
vt 0.625000 0.666667
vt 0.708333 0.750000
vt 0.708333 0.583333
vt 0.625000 0.583333
vt 0.791667 0.500000
vt 0.708333 0.500000
vt 0.791667 0.583333
vt 0.875000 0.500000
vt 0.875000 0.583333
vt 0.208333 0.666667
vt 0.125000 0.750000
vt 0.125000 0.666667
vt 0.208333 0.750000
vt 0.125000 0.500000
vt 0.208333 0.583333
vt 0.125000 0.583333
vt 0.291667 0.500000
vt 0.208333 0.500000
vt 0.291667 0.583333
vt 0.375000 0.500000
vt 0.375000 0.583333
vt 0.458333 0.916667
vt 0.375000 1.000000
vt 0.375000 0.916667
vt 0.458333 1.000000
vt 0.458333 0.750000
vt 0.375000 0.833333
vt 0.458333 0.833333
vt 0.541667 0.833333
vt 0.625000 0.833333
vt 0.375000 0.666667
vt 0.458333 0.666667
vt 0.458333 0.500000
vt 0.541667 0.583333
vt 0.458333 0.583333
vt 0.375000 0.416667
vt 0.458333 0.416667
vt 0.375000 0.250000
vt 0.458333 0.333333
vt 0.375000 0.333333
vt 0.458333 0.250000
vt 0.541667 0.333333
vt 0.625000 0.333333
vt 0.458333 0.166667
vt 0.375000 0.166667
vt 0.375000 0.000000
vt 0.458333 0.083333
vt 0.375000 0.083333
vt 0.458333 0.000000
vt 0.541667 0.083333
vt 0.625000 0.000000
vt 0.541667 0.000000
vt 0.625000 0.083333
vt 0.625000 0.166667
vt 0.625000 0.416667
vt 0.625000 0.916667
vt 0.875000 0.666667
vn 0.2665 0.9637 -0.0152
vn 0.2237 0.9745 0.0188
vn 0.3221 0.9448 -0.0604
vn 0.7773 -0.6291 -0.0039
vn 0.8298 -0.5546 0.0615
vn 0.7170 -0.6939 -0.0673
vn -0.1145 -0.9915 -0.0623
vn -0.1251 -0.9897 -0.0701
vn -0.1007 -0.9936 -0.0522
vn -0.7773 0.6291 -0.0039
vn -0.8298 0.5546 0.0615
vn -0.7170 0.6939 -0.0673
vn -0.4239 -0.4263 -0.7991
vn -0.4234 -0.4268 -0.7991
vn -0.4054 -0.4446 -0.7988
vn -0.3134 0.6352 0.7059
vn -0.3140 0.6348 0.7060
vn -0.3598 0.6002 0.7144
vn -0.3135 -0.6352 0.7059
vn -0.3141 -0.6347 0.7060
vn -0.2653 -0.6684 0.6948
vn -0.4499 -0.0000 0.8931
vn 0.3141 -0.6347 0.7060
vn 0.3135 -0.6352 0.7059
vn 0.2653 -0.6684 0.6948
vn 0.0000 -0.6687 0.7435
vn 0.4499 -0.0000 0.8931
vn 0.0000 -0.0000 1.0000
vn 0.3140 0.6348 0.7060
vn 0.3134 0.6352 0.7059
vn 0.3598 0.6002 0.7144
vn 0.0000 0.6687 0.7435
vn -0.2614 0.1001 -0.9600
vn -0.2646 0.0966 -0.9595
vn -0.2964 0.0624 -0.9530
vn -0.3136 -0.0935 -0.9449
vn -0.3346 -0.0755 -0.9393
vn -0.2259 -0.1656 -0.9600
vn 0.2646 0.0966 -0.9595
vn 0.2614 0.1001 -0.9600
vn 0.2964 0.0624 -0.9530
vn 0.0000 0.0842 -0.9965
vn 0.3346 -0.0755 -0.9393
vn 0.3136 -0.0935 -0.9449
vn 0.2259 -0.1656 -0.9600
vn 0.0000 0.0000 -1.0000
vn 0.4234 -0.4268 -0.7991
vn 0.4239 -0.4263 -0.7991
vn 0.4054 -0.4446 -0.7988
vn 0.0000 -0.4131 -0.9107
vn -0.8277 0.4515 0.3333
vn -0.9213 0.3167 0.2258
vn -0.9714 0.1974 0.1316
vn -0.7126 0.6736 -0.1960
vn -0.7134 0.6725 -0.1967
vn -0.7141 0.6717 -0.1973
vn -0.7696 -0.6031 0.2099
vn -0.8502 -0.4350 0.2966
vn -0.9004 -0.1968 0.3879
vn -0.9925 -0.1019 0.0670
vn -0.9955 -0.0801 0.0515
vn -0.9888 -0.1242 0.0828
vn -0.7157 -0.6526 -0.2489
vn -0.7302 -0.6404 -0.2382
vn -0.7391 -0.6326 -0.2314
vn -0.9885 -0.0480 -0.1437
vn -0.9870 -0.0251 -0.1590
vn -0.9893 -0.0802 -0.1219
vn -0.8298 -0.5546 0.0615
vn -0.7773 -0.6291 -0.0039
vn -0.7170 -0.6939 -0.0673
vn -0.9912 -0.0000 0.1321
vn -0.2307 -0.8932 0.3859
vn -0.2631 -0.8897 0.3732
vn -0.1613 -0.8972 0.4111
vn -0.1723 -0.9697 -0.1732
vn -0.2491 -0.9580 -0.1418
vn -0.3096 -0.9438 -0.1158
vn 0.2631 -0.8897 0.3732
vn 0.2307 -0.8932 0.3859
vn 0.1613 -0.8972 0.4111
vn -0.0000 -0.9675 0.2528
vn 0.2491 -0.9580 -0.1418
vn 0.1723 -0.9697 -0.1732
vn 0.3096 -0.9438 -0.1158
vn 0.0000 -0.9983 -0.0580
vn -0.0000 -0.9983 -0.0584
vn 0.1251 -0.9897 -0.0701
vn 0.1145 -0.9915 -0.0623
vn 0.1007 -0.9936 -0.0522
vn 0.0000 -0.9979 -0.0644
vn -0.0000 -0.9983 -0.0583
vn 0.8502 -0.4350 0.2966
vn 0.7696 -0.6031 0.2099
vn 0.9004 -0.1968 0.3879
vn 0.7302 -0.6404 -0.2382
vn 0.7157 -0.6526 -0.2489
vn 0.7391 -0.6326 -0.2314
vn 0.9213 0.3167 0.2258
vn 0.8277 0.4515 0.3333
vn 0.9714 0.1974 0.1316
vn 0.9955 -0.0801 0.0515
vn 0.9925 -0.1019 0.0670
vn 0.9888 -0.1242 0.0828
vn 0.7134 0.6725 -0.1967
vn 0.7126 0.6736 -0.1960
vn 0.7141 0.6717 -0.1973
vn 0.9870 -0.0251 -0.1590
vn 0.9885 -0.0480 -0.1437
vn 0.9893 -0.0802 -0.1219
vn 0.8298 0.5546 0.0615
vn 0.7773 0.6291 -0.0039
vn 0.7170 0.6939 -0.0673
vn 0.9912 -0.0000 0.1321
vn 0.3098 0.8775 0.3662
vn 0.2997 0.8844 0.3578
vn 0.2927 0.8891 0.3520
vn 0.3432 0.9263 -0.1555
vn 0.3706 0.9180 -0.1412
vn 0.3965 0.9092 -0.1273
vn -0.2997 0.8844 0.3578
vn -0.3098 0.8775 0.3662
vn -0.2927 0.8891 0.3520
vn 0.0000 0.9596 0.2813
vn -0.3706 0.9180 -0.1412
vn -0.3432 0.9263 -0.1555
vn -0.3965 0.9092 -0.1273
vn 0.0000 0.9973 -0.0735
vn -0.2237 0.9745 0.0188
vn -0.2665 0.9637 -0.0152
vn -0.3221 0.9448 -0.0604
vn 0.0000 0.9970 0.0768
vn 0.1682 0.9838 0.0622
vn 0.8656 -0.4872 0.1154
vn -0.1373 -0.9874 -0.0790
vn -0.8656 0.4872 0.1154
vn -0.4416 -0.4084 -0.7989
vn -0.2652 0.6685 0.6948
vn -0.3598 -0.6002 0.7144
vn 0.3598 -0.6002 0.7144
vn 0.2652 0.6685 0.6948
vn -0.2270 0.1361 -0.9643
vn -0.4191 0.0000 -0.9079
vn 0.2270 0.1361 -0.9643
vn 0.4191 0.0000 -0.9079
vn 0.4416 -0.4084 -0.7989
vn -0.7368 0.5411 0.4054
vn -0.7118 0.6746 -0.1953
vn -0.6626 -0.7395 0.1191
vn -0.9983 -0.0501 0.0303
vn -0.7050 -0.6612 -0.2566
vn -0.9844 -0.0000 -0.1757
vn -0.8656 -0.4872 0.1154
vn -0.3135 -0.8818 0.3523
vn -0.1097 -0.9741 -0.1975
vn 0.3135 -0.8818 0.3523
vn 0.1097 -0.9741 -0.1975
vn 0.1373 -0.9874 -0.0790
vn 0.6626 -0.7395 0.1191
vn 0.7050 -0.6612 -0.2566
vn 0.7368 0.5411 0.4054
vn 0.9983 -0.0501 0.0303
vn 0.7118 0.6746 -0.1953
vn 0.9844 0.0000 -0.1757
vn 0.8656 0.4872 0.1154
vn 0.3173 0.8721 0.3725
vn 0.3134 0.9342 -0.1708
vn -0.3173 0.8721 0.3725
vn -0.3134 0.9342 -0.1708
vn -0.1682 0.9838 0.0622
usemtl None.010
s 1
f 1/1/1 3/2/2 4/3/3
f 5/4/4 7/5/5 8/6/6
f 9/7/7 11/8/8 12/9/9
f 13/10/10 15/11/11 16/12/12
f 17/13/13 19/14/14 20/15/15
f 21/16/16 15/17/17 14/18/18
f 23/19/19 11/8/20 10/20/21
f 23/19/22 14/18/22 24/21/22
f 7/5/23 25/22/24 26/23/25
f 25/22/26 10/20/26 26/23/26
f 27/24/27 25/22/27 6/25/27
f 28/26/28 23/19/28 25/22/28
f 3/27/29 28/26/30 27/24/31
f 2/28/32 21/16/32 28/26/32
f 30/29/33 32/30/34 29/31/35
f 30/29/36 20/15/37 31/32/38
f 33/33/39 35/34/40 36/35/41
f 35/34/42 29/31/42 36/35/42
f 37/36/43 35/34/44 34/37/45
f 38/38/46 30/29/46 35/34/46
f 39/39/47 38/38/48 37/36/49
f 40/40/50 17/13/50 38/38/50
f 41/41/51 32/42/52 31/43/53
f 13/10/54 42/44/55 41/41/56
f 43/45/57 20/46/58 19/14/59
f 20/46/60 41/41/61 31/43/62
f 12/9/63 44/47/64 43/45/65
f 44/47/66 13/10/67 41/41/68
f 11/8/69 45/48/70 12/9/71
f 24/49/72 13/10/72 45/48/72
f 18/50/73 43/45/74 19/14/75
f 9/7/76 43/45/77 46/51/78
f 47/52/79 40/40/80 39/39/81
f 40/40/82 46/51/82 18/50/82
f 47/52/83 49/53/84 48/54/85
f 48/54/86 9/7/87 46/51/86
f 7/5/88 49/53/89 8/6/90
f 26/23/91 9/7/87 49/53/92
f 37/55/93 47/52/94 39/39/95
f 50/56/96 8/6/97 47/52/98
f 33/57/99 52/58/100 34/59/101
f 52/58/102 37/55/103 34/59/104
f 51/60/105 53/61/106 52/58/107
f 53/61/108 50/56/109 52/58/110
f 3/2/111 53/61/112 4/3/113
f 27/62/114 5/4/114 53/61/114
f 54/63/115 33/57/116 36/64/117
f 1/1/118 51/60/119 54/63/120
f 32/65/121 55/66/122 29/67/123
f 55/66/124 36/64/124 29/67/124
f 42/68/125 56/69/126 55/66/127
f 56/69/128 54/63/128 55/66/128
f 15/70/129 56/69/130 16/71/131
f 22/72/132 1/1/132 56/69/132
f 1/1/1 2/73/133 3/2/2
f 5/4/4 6/74/134 7/5/5
f 9/7/7 10/20/135 11/8/8
f 13/10/10 14/75/136 15/11/11
f 17/13/13 18/50/137 19/14/14
f 21/16/16 22/76/138 15/17/17
f 23/19/19 24/21/139 11/8/20
f 23/19/22 21/16/22 14/18/22
f 7/5/23 6/25/140 25/22/24
f 25/22/26 23/19/26 10/20/26
f 27/24/27 28/26/27 25/22/27
f 28/26/28 21/16/28 23/19/28
f 3/27/29 2/28/141 28/26/30
f 2/28/32 22/76/32 21/16/32
f 30/29/33 31/32/142 32/30/34
f 30/29/36 17/13/143 20/15/37
f 33/33/39 34/37/144 35/34/40
f 35/34/42 30/29/42 29/31/42
f 37/36/43 38/38/145 35/34/44
f 38/38/46 17/13/46 30/29/46
f 39/39/47 40/40/146 38/38/48
f 40/40/50 18/50/50 17/13/50
f 41/41/51 42/44/147 32/42/52
f 13/10/54 16/12/148 42/44/55
f 43/45/57 44/47/149 20/46/58
f 20/46/60 44/47/150 41/41/61
f 12/9/63 45/48/151 44/47/64
f 44/47/66 45/48/152 13/10/67
f 11/8/69 24/49/153 45/48/70
f 24/49/72 14/75/72 13/10/72
f 18/50/73 46/51/154 43/45/74
f 9/7/76 12/9/155 43/45/77
f 47/52/79 48/54/156 40/40/80
f 40/40/82 48/54/82 46/51/82
f 47/52/83 8/6/157 49/53/84
f 48/54/86 49/53/92 9/7/87
f 7/5/88 26/23/158 49/53/89
f 26/23/91 10/20/91 9/7/87
f 37/55/93 50/56/159 47/52/94
f 50/56/96 5/4/160 8/6/97
f 33/57/99 51/60/161 52/58/100
f 52/58/102 50/56/162 37/55/103
f 51/60/105 4/3/163 53/61/106
f 53/61/108 5/4/164 50/56/109
f 3/2/111 27/62/165 53/61/112
f 27/62/114 6/74/114 5/4/114
f 54/63/115 51/60/166 33/57/116
f 1/1/118 4/3/167 51/60/119
f 32/65/121 42/68/168 55/66/122
f 55/66/124 54/63/124 36/64/124
f 42/68/125 16/71/169 56/69/126
f 56/69/128 1/1/128 54/63/128
f 15/70/129 22/72/170 56/69/130
f 22/72/132 2/73/132 1/1/132
